<svg width="21" xmlns="http://www.w3.org/2000/svg" height="24" id="screenshot-fe7ff8a4-e109-8036-8006-4a720516c570" viewBox="1639 3287 21 24" xmlns:xlink="http://www.w3.org/1999/xlink" fill="none" version="1.1"><g id="shape-fe7ff8a4-e109-8036-8006-4a720516c570"><defs><linearGradient id="fill-color-gradient-render-1-0" x1="0.5" y1="0" x2="0.5" y2="1" gradientTransform=""><stop offset="0" stop-color="#3ae4d1" stop-opacity="1"/><stop offset="1" stop-color="#28a496" stop-opacity="1"/></linearGradient><pattern patternUnits="userSpaceOnUse" x="1638.9999999999998" y="3287.0000000000005" width="21" height="24" patternTransform="matrix(1.000000, 0.000000, 0.000000, 1.000000, 0.000000, 0.000000)" id="fill-0-render-1"><g><rect width="21" height="24" style="fill: url(&quot;#fill-color-gradient-render-1-0&quot;);"/></g></pattern></defs><g class="fills" id="fills-fe7ff8a4-e109-8036-8006-4a720516c570"><path d="M1645,3287C1645.8297119140625,3287,1646.5,3287.67041015625,1646.5,3288.5L1646.5,3290L1652.5,3290L1652.5,3288.5C1652.5,3287.67041015625,1653.1702880859375,3287,1654,3287C1654.8297119140625,3287,1655.5,3287.67041015625,1655.5,3288.5L1655.5,3290L1657.75,3290C1658.9921875,3290,1660,3291.0078125,1660,3292.25L1660,3294.5L1639,3294.5L1639,3292.25C1639,3291.0078125,1640.0078125,3290,1641.25,3290L1643.5,3290L1643.5,3288.5C1643.5,3287.67041015625,1644.1702880859375,3287,1645,3287ZM1639,3296L1660,3296L1660,3308.75C1660,3309.9921875,1658.9921875,3311,1657.75,3311L1641.25,3311C1640.0078125,3311,1639,3309.9921875,1639,3308.75L1639,3296ZM1642,3299.75L1642,3301.25C1642,3301.66259765625,1642.3375244140625,3302,1642.75,3302L1644.25,3302C1644.6624755859375,3302,1645,3301.66259765625,1645,3301.25L1645,3299.75C1645,3299.33740234375,1644.6624755859375,3299,1644.25,3299L1642.75,3299C1642.3375244140625,3299,1642,3299.33740234375,1642,3299.75ZM1648,3299.75L1648,3301.25C1648,3301.66259765625,1648.3375244140625,3302,1648.75,3302L1650.25,3302C1650.6624755859375,3302,1651,3301.66259765625,1651,3301.25L1651,3299.75C1651,3299.33740234375,1650.6624755859375,3299,1650.25,3299L1648.75,3299C1648.3375244140625,3299,1648,3299.33740234375,1648,3299.75ZM1654.75,3299C1654.3375244140625,3299,1654,3299.33740234375,1654,3299.75L1654,3301.25C1654,3301.66259765625,1654.3375244140625,3302,1654.75,3302L1656.25,3302C1656.6624755859375,3302,1657,3301.66259765625,1657,3301.25L1657,3299.75C1657,3299.33740234375,1656.6624755859375,3299,1656.25,3299L1654.75,3299ZM1642,3305.75L1642,3307.25C1642,3307.66259765625,1642.3375244140625,3308,1642.75,3308L1644.25,3308C1644.6624755859375,3308,1645,3307.66259765625,1645,3307.25L1645,3305.75C1645,3305.33740234375,1644.6624755859375,3305,1644.25,3305L1642.75,3305C1642.3375244140625,3305,1642,3305.33740234375,1642,3305.75ZM1648.75,3305C1648.3375244140625,3305,1648,3305.33740234375,1648,3305.75L1648,3307.25C1648,3307.66259765625,1648.3375244140625,3308,1648.75,3308L1650.25,3308C1650.6624755859375,3308,1651,3307.66259765625,1651,3307.25L1651,3305.75C1651,3305.33740234375,1650.6624755859375,3305,1650.25,3305L1648.75,3305ZM1654,3305.75L1654,3307.25C1654,3307.66259765625,1654.3375244140625,3308,1654.75,3308L1656.25,3308C1656.6624755859375,3308,1657,3307.66259765625,1657,3307.25L1657,3305.75C1657,3305.33740234375,1656.6624755859375,3305,1656.25,3305L1654.75,3305C1654.3375244140625,3305,1654,3305.33740234375,1654,3305.75Z" fill="url(#fill-0-render-1)"/></g><g id="strokes-12acd98d-65eb-808c-8006-6695d9950684-fe7ff8a4-e109-8036-8006-4a720516c570" class="strokes"><g class="inner-stroke-shape"><defs><clipPath id="inner-stroke-render-1-fe7ff8a4-e109-8036-8006-4a720516c570-0"><use href="#stroke-shape-render-1-fe7ff8a4-e109-8036-8006-4a720516c570-0"/></clipPath><path d="M1645,3287C1645.8297119140625,3287,1646.5,3287.67041015625,1646.5,3288.5L1646.5,3290L1652.5,3290L1652.5,3288.5C1652.5,3287.67041015625,1653.1702880859375,3287,1654,3287C1654.8297119140625,3287,1655.5,3287.67041015625,1655.5,3288.5L1655.5,3290L1657.75,3290C1658.9921875,3290,1660,3291.0078125,1660,3292.25L1660,3294.5L1639,3294.5L1639,3292.25C1639,3291.0078125,1640.0078125,3290,1641.25,3290L1643.5,3290L1643.5,3288.5C1643.5,3287.67041015625,1644.1702880859375,3287,1645,3287ZM1639,3296L1660,3296L1660,3308.75C1660,3309.9921875,1658.9921875,3311,1657.75,3311L1641.25,3311C1640.0078125,3311,1639,3309.9921875,1639,3308.75L1639,3296ZM1642,3299.75L1642,3301.25C1642,3301.66259765625,1642.3375244140625,3302,1642.75,3302L1644.25,3302C1644.6624755859375,3302,1645,3301.66259765625,1645,3301.25L1645,3299.75C1645,3299.33740234375,1644.6624755859375,3299,1644.25,3299L1642.75,3299C1642.3375244140625,3299,1642,3299.33740234375,1642,3299.75ZM1648,3299.75L1648,3301.25C1648,3301.66259765625,1648.3375244140625,3302,1648.75,3302L1650.25,3302C1650.6624755859375,3302,1651,3301.66259765625,1651,3301.25L1651,3299.75C1651,3299.33740234375,1650.6624755859375,3299,1650.25,3299L1648.75,3299C1648.3375244140625,3299,1648,3299.33740234375,1648,3299.75ZM1654.75,3299C1654.3375244140625,3299,1654,3299.33740234375,1654,3299.75L1654,3301.25C1654,3301.66259765625,1654.3375244140625,3302,1654.75,3302L1656.25,3302C1656.6624755859375,3302,1657,3301.66259765625,1657,3301.25L1657,3299.75C1657,3299.33740234375,1656.6624755859375,3299,1656.25,3299L1654.75,3299ZM1642,3305.75L1642,3307.25C1642,3307.66259765625,1642.3375244140625,3308,1642.75,3308L1644.25,3308C1644.6624755859375,3308,1645,3307.66259765625,1645,3307.25L1645,3305.75C1645,3305.33740234375,1644.6624755859375,3305,1644.25,3305L1642.75,3305C1642.3375244140625,3305,1642,3305.33740234375,1642,3305.75ZM1648.75,3305C1648.3375244140625,3305,1648,3305.33740234375,1648,3305.75L1648,3307.25C1648,3307.66259765625,1648.3375244140625,3308,1648.75,3308L1650.25,3308C1650.6624755859375,3308,1651,3307.66259765625,1651,3307.25L1651,3305.75C1651,3305.33740234375,1650.6624755859375,3305,1650.25,3305L1648.75,3305ZM1654,3305.75L1654,3307.25C1654,3307.66259765625,1654.3375244140625,3308,1654.75,3308L1656.25,3308C1656.6624755859375,3308,1657,3307.66259765625,1657,3307.25L1657,3305.75C1657,3305.33740234375,1656.6624755859375,3305,1656.25,3305L1654.75,3305C1654.3375244140625,3305,1654,3305.33740234375,1654,3305.75Z" id="stroke-shape-render-1-fe7ff8a4-e109-8036-8006-4a720516c570-0" style="fill: none; stroke-width: 0.2; stroke: rgb(58, 228, 209); stroke-opacity: 1;"/></defs><use href="#stroke-shape-render-1-fe7ff8a4-e109-8036-8006-4a720516c570-0" clip-path="url('#inner-stroke-render-1-fe7ff8a4-e109-8036-8006-4a720516c570-0')"/></g></g></g></svg>