<svg width="23.999" xmlns="http://www.w3.org/2000/svg" height="24" id="screenshot-fe7ff8a4-e109-8036-8006-4a726e20cf74" viewBox="2025 3287 23.999 24" xmlns:xlink="http://www.w3.org/1999/xlink" fill="none" version="1.1"><g id="shape-fe7ff8a4-e109-8036-8006-4a726e20cf74"><defs><linearGradient id="fill-color-gradient-render-1-0" x1="0.5" y1="0" x2="0.5" y2="1" gradientTransform=""><stop offset="0" stop-color="#3ae4d1" stop-opacity="1"/><stop offset="1" stop-color="#28a496" stop-opacity="1"/></linearGradient><pattern patternUnits="userSpaceOnUse" x="2024.9999999999993" y="3287.0000000000005" width="23.99942078584695" height="24" patternTransform="matrix(1.000000, 0.000000, 0.000000, 1.000000, 0.000000, 0.000000)" id="fill-0-render-1"><g><rect width="23.99942078584695" height="24" style="fill: url(&quot;#fill-color-gradient-render-1-0&quot;);"/></g></pattern></defs><g class="fills" id="fills-fe7ff8a4-e109-8036-8006-4a726e20cf74"><path d="M2032.343017578125,3305.03955078125L2030.8946533203125,3303.59130859375C2030.496337890625,3303.19287109375,2030.355712890625,3302.616455078125,2030.5338134765625,3302.08203125C2030.6744384765625,3301.6650390625,2030.8619384765625,3301.12109375,2031.0869140625,3300.497802734375L2026.1279296875,3300.497802734375C2025.724853515625,3300.497802734375,2025.349853515625,3300.2822265625,2025.1483154296875,3299.9306640625C2024.94677734375,3299.5791015625,2024.951416015625,3299.14794921875,2025.1575927734375,3298.801025390625L2027.618408203125,3294.653076171875C2028.227783203125,3293.62646484375,2029.3292236328125,3292.998291015625,2030.519775390625,3292.998291015625L2034.3773193359375,3292.998291015625C2034.48974609375,3292.810791015625,2034.602294921875,3292.637451171875,2034.7147216796875,3292.46875C2038.553466796875,3286.806640625,2044.2718505859375,3286.619140625,2047.68408203125,3287.247314453125C2048.227783203125,3287.345703125,2048.649658203125,3287.772216796875,2048.752685546875,3288.31591796875C2049.380859375,3291.73291015625,2049.188720703125,3297.446533203125,2043.53125,3301.28515625C2043.3671875,3301.397705078125,2043.1890869140625,3301.51025390625,2043.0015869140625,3301.622802734375L2043.0015869140625,3305.480224609375C2043.0015869140625,3306.6708984375,2042.37353515625,3307.77685546875,2041.3470458984375,3308.381591796875L2037.198974609375,3310.84228515625C2036.85205078125,3311.048583984375,2036.4208984375,3311.05322265625,2036.0693359375,3310.851806640625C2035.7177734375,3310.650146484375,2035.502197265625,3310.27978515625,2035.502197265625,3309.8720703125L2035.502197265625,3304.847412109375C2034.84130859375,3305.0771484375,2034.2647705078125,3305.2646484375,2033.828857421875,3305.4052734375C2033.303955078125,3305.573974609375,2032.7320556640625,3305.4287109375,2032.33837890625,3305.03955078125ZM2043.0015869140625,3294.873291015625C2044.037109375,3294.873291015625,2044.87646484375,3294.033935546875,2044.87646484375,3292.998291015625C2044.87646484375,3291.962890625,2044.037109375,3291.12353515625,2043.0015869140625,3291.12353515625C2041.9661865234375,3291.12353515625,2041.126708984375,3291.962890625,2041.126708984375,3292.998291015625C2041.126708984375,3294.033935546875,2041.9661865234375,3294.873291015625,2043.0015869140625,3294.873291015625Z" fill="url(#fill-0-render-1)"/></g><g id="strokes-780226d9-177e-80b5-8006-6695ee25f713-fe7ff8a4-e109-8036-8006-4a726e20cf74" class="strokes"><g class="inner-stroke-shape"><defs><clipPath id="inner-stroke-render-1-fe7ff8a4-e109-8036-8006-4a726e20cf74-0"><use href="#stroke-shape-render-1-fe7ff8a4-e109-8036-8006-4a726e20cf74-0"/></clipPath><path d="M2032.343017578125,3305.03955078125L2030.8946533203125,3303.59130859375C2030.496337890625,3303.19287109375,2030.355712890625,3302.616455078125,2030.5338134765625,3302.08203125C2030.6744384765625,3301.6650390625,2030.8619384765625,3301.12109375,2031.0869140625,3300.497802734375L2026.1279296875,3300.497802734375C2025.724853515625,3300.497802734375,2025.349853515625,3300.2822265625,2025.1483154296875,3299.9306640625C2024.94677734375,3299.5791015625,2024.951416015625,3299.14794921875,2025.1575927734375,3298.801025390625L2027.618408203125,3294.653076171875C2028.227783203125,3293.62646484375,2029.3292236328125,3292.998291015625,2030.519775390625,3292.998291015625L2034.3773193359375,3292.998291015625C2034.48974609375,3292.810791015625,2034.602294921875,3292.637451171875,2034.7147216796875,3292.46875C2038.553466796875,3286.806640625,2044.2718505859375,3286.619140625,2047.68408203125,3287.247314453125C2048.227783203125,3287.345703125,2048.649658203125,3287.772216796875,2048.752685546875,3288.31591796875C2049.380859375,3291.73291015625,2049.188720703125,3297.446533203125,2043.53125,3301.28515625C2043.3671875,3301.397705078125,2043.1890869140625,3301.51025390625,2043.0015869140625,3301.622802734375L2043.0015869140625,3305.480224609375C2043.0015869140625,3306.6708984375,2042.37353515625,3307.77685546875,2041.3470458984375,3308.381591796875L2037.198974609375,3310.84228515625C2036.85205078125,3311.048583984375,2036.4208984375,3311.05322265625,2036.0693359375,3310.851806640625C2035.7177734375,3310.650146484375,2035.502197265625,3310.27978515625,2035.502197265625,3309.8720703125L2035.502197265625,3304.847412109375C2034.84130859375,3305.0771484375,2034.2647705078125,3305.2646484375,2033.828857421875,3305.4052734375C2033.303955078125,3305.573974609375,2032.7320556640625,3305.4287109375,2032.33837890625,3305.03955078125ZM2043.0015869140625,3294.873291015625C2044.037109375,3294.873291015625,2044.87646484375,3294.033935546875,2044.87646484375,3292.998291015625C2044.87646484375,3291.962890625,2044.037109375,3291.12353515625,2043.0015869140625,3291.12353515625C2041.9661865234375,3291.12353515625,2041.126708984375,3291.962890625,2041.126708984375,3292.998291015625C2041.126708984375,3294.033935546875,2041.9661865234375,3294.873291015625,2043.0015869140625,3294.873291015625Z" id="stroke-shape-render-1-fe7ff8a4-e109-8036-8006-4a726e20cf74-0" style="fill: none; stroke-width: 0.2; stroke: rgb(58, 228, 209); stroke-opacity: 1;"/></defs><use href="#stroke-shape-render-1-fe7ff8a4-e109-8036-8006-4a726e20cf74-0" clip-path="url('#inner-stroke-render-1-fe7ff8a4-e109-8036-8006-4a726e20cf74-0')"/></g></g></g></svg>