<svg width="26" xmlns="http://www.w3.org/2000/svg" height="26" id="screenshot-fe7ff8a4-e109-8036-8006-4a7079039d96" viewBox="1252 3124 26 26" xmlns:xlink="http://www.w3.org/1999/xlink" fill="none" version="1.1"><g id="shape-fe7ff8a4-e109-8036-8006-4a7079039d96"><defs><linearGradient id="fill-color-gradient-render-1-0" x1="0.5" y1="0" x2="0.5" y2="1" gradientTransform=""><stop offset="0" stop-color="#3ae4d1" stop-opacity="1"/><stop offset="1" stop-color="#28a496" stop-opacity="1"/></linearGradient><pattern patternUnits="userSpaceOnUse" x="1252.9999999999998" y="3124.999999999999" width="24" height="24" patternTransform="matrix(1.000000, 0.000000, 0.000000, 1.000000, 0.000000, 0.000000)" id="fill-0-render-1"><g><rect width="24" height="24" style="fill: url(&quot;#fill-color-gradient-render-1-0&quot;);"/></g></pattern></defs><g class="fills" id="fills-fe7ff8a4-e109-8036-8006-4a7079039d96"><path d="M1256.685546875,3125.23486328125C1256.240234375,3124.88818359375,1255.607421875,3124.93017578125,1255.204345703125,3125.32861328125L1253.3294677734375,3127.20361328125C1252.9310302734375,3127.60205078125,1252.8887939453125,3128.23486328125,1253.23095703125,3128.684814453125L1256.9808349609375,3133.559814453125C1257.1917724609375,3133.836181640625,1257.5245361328125,3134.000244140625,1257.871337890625,3134.000244140625L1260.4072265625,3134.000244140625L1265.5162353515625,3139.109619140625C1264.8272705078125,3140.468994140625,1265.0474853515625,3142.175048828125,1266.1865234375,3143.3095703125L1271.436279296875,3148.559326171875C1272.0220947265625,3149.145263671875,1272.9736328125,3149.145263671875,1273.5595703125,3148.559326171875L1276.5594482421875,3145.5595703125C1277.145263671875,3144.9736328125,1277.145263671875,3144.02197265625,1276.5594482421875,3143.43603515625L1271.3096923828125,3138.186279296875C1270.1754150390625,3137.0517578125,1268.46923828125,3136.826904296875,1267.10986328125,3137.515869140625L1262.0008544921875,3132.40673828125L1262.0008544921875,3129.870849609375C1262.0008544921875,3129.519287109375,1261.8367919921875,3129.191162109375,1261.5601806640625,3128.980224609375L1256.685546875,3125.23486328125ZM1253.93408203125,3143.5673828125C1253.3388671875,3144.16259765625,1253.0013427734375,3144.9736328125,1253.0013427734375,3145.8173828125C1253.0013427734375,3147.574951171875,1254.42626953125,3149,1256.1839599609375,3149C1257.0277099609375,3149,1257.8385009765625,3148.66259765625,1258.433837890625,3148.067138671875L1263.9554443359375,3142.54541015625C1263.58984375,3141.56591796875,1263.5335693359375,3140.501708984375,1263.78662109375,3139.493896484375L1260.8946533203125,3136.601806640625L1253.93408203125,3143.5673828125ZM1277,3131.75048828125C1277,3131.25830078125,1276.948486328125,3130.780029296875,1276.8499755859375,3130.32080078125C1276.737548828125,3129.795654296875,1276.0953369140625,3129.659912109375,1275.7156982421875,3130.03955078125L1272.7205810546875,3133.03466796875C1272.5799560546875,3133.17529296875,1272.3876953125,3133.255126953125,1272.19091796875,3133.255126953125L1269.5003662109375,3133.25048828125C1269.087890625,3133.25048828125,1268.75048828125,3132.912841796875,1268.75048828125,3132.50048828125L1268.75048828125,3129.809814453125C1268.75048828125,3129.613037109375,1268.8302001953125,3129.420654296875,1268.970703125,3129.280029296875L1271.9659423828125,3126.284912109375C1272.3455810546875,3125.9052734375,1272.2095947265625,3125.262939453125,1271.6846923828125,3125.150634765625C1271.2205810546875,3125.05224609375,1270.7425537109375,3125.00048828125,1270.2503662109375,3125.00048828125C1266.5240478515625,3125.00048828125,1263.500732421875,3128.02392578125,1263.500732421875,3131.75048828125L1263.500732421875,3131.787841796875L1267.4990234375,3135.7861328125C1269.1864013671875,3135.359619140625,1271.0518798828125,3135.8095703125,1272.3736572265625,3137.131591796875L1273.109619140625,3137.867431640625C1275.4063720703125,3136.789306640625,1277,3134.455078125,1277,3131.75048828125ZM1255.626220703125,3145.25C1255.626220703125,3144.628662109375,1256.1298828125,3144.125,1256.7510986328125,3144.125C1257.3724365234375,3144.125,1257.8760986328125,3144.628662109375,1257.8760986328125,3145.25C1257.8760986328125,3145.871337890625,1257.3724365234375,3146.375,1256.7510986328125,3146.375C1256.1298828125,3146.375,1255.626220703125,3145.871337890625,1255.626220703125,3145.25Z" fill="url(#fill-0-render-1)"/></g><g id="strokes-b2fb9704-5ca6-80d3-8006-66957ef262ac-fe7ff8a4-e109-8036-8006-4a7079039d96" class="strokes"><g class="outer-stroke-shape"><defs><mask id="outer-stroke-render-1-fe7ff8a4-e109-8036-8006-4a7079039d96-0" x="1252.7585786437626" y="3124.7585786437617" width="24.482842712474618" height="24.482842712474618" maskUnits="userSpaceOnUse"><use href="#stroke-shape-render-1-fe7ff8a4-e109-8036-8006-4a7079039d96-0" style="fill: none; stroke: white; stroke-width: 0.2;"/><use href="#stroke-shape-render-1-fe7ff8a4-e109-8036-8006-4a7079039d96-0" style="fill: black; stroke: none;"/></mask><path d="M1256.685546875,3125.23486328125C1256.240234375,3124.88818359375,1255.607421875,3124.93017578125,1255.204345703125,3125.32861328125L1253.3294677734375,3127.20361328125C1252.9310302734375,3127.60205078125,1252.8887939453125,3128.23486328125,1253.23095703125,3128.684814453125L1256.9808349609375,3133.559814453125C1257.1917724609375,3133.836181640625,1257.5245361328125,3134.000244140625,1257.871337890625,3134.000244140625L1260.4072265625,3134.000244140625L1265.5162353515625,3139.109619140625C1264.8272705078125,3140.468994140625,1265.0474853515625,3142.175048828125,1266.1865234375,3143.3095703125L1271.436279296875,3148.559326171875C1272.0220947265625,3149.145263671875,1272.9736328125,3149.145263671875,1273.5595703125,3148.559326171875L1276.5594482421875,3145.5595703125C1277.145263671875,3144.9736328125,1277.145263671875,3144.02197265625,1276.5594482421875,3143.43603515625L1271.3096923828125,3138.186279296875C1270.1754150390625,3137.0517578125,1268.46923828125,3136.826904296875,1267.10986328125,3137.515869140625L1262.0008544921875,3132.40673828125L1262.0008544921875,3129.870849609375C1262.0008544921875,3129.519287109375,1261.8367919921875,3129.191162109375,1261.5601806640625,3128.980224609375L1256.685546875,3125.23486328125ZM1253.93408203125,3143.5673828125C1253.3388671875,3144.16259765625,1253.0013427734375,3144.9736328125,1253.0013427734375,3145.8173828125C1253.0013427734375,3147.574951171875,1254.42626953125,3149,1256.1839599609375,3149C1257.0277099609375,3149,1257.8385009765625,3148.66259765625,1258.433837890625,3148.067138671875L1263.9554443359375,3142.54541015625C1263.58984375,3141.56591796875,1263.5335693359375,3140.501708984375,1263.78662109375,3139.493896484375L1260.8946533203125,3136.601806640625L1253.93408203125,3143.5673828125ZM1277,3131.75048828125C1277,3131.25830078125,1276.948486328125,3130.780029296875,1276.8499755859375,3130.32080078125C1276.737548828125,3129.795654296875,1276.0953369140625,3129.659912109375,1275.7156982421875,3130.03955078125L1272.7205810546875,3133.03466796875C1272.5799560546875,3133.17529296875,1272.3876953125,3133.255126953125,1272.19091796875,3133.255126953125L1269.5003662109375,3133.25048828125C1269.087890625,3133.25048828125,1268.75048828125,3132.912841796875,1268.75048828125,3132.50048828125L1268.75048828125,3129.809814453125C1268.75048828125,3129.613037109375,1268.8302001953125,3129.420654296875,1268.970703125,3129.280029296875L1271.9659423828125,3126.284912109375C1272.3455810546875,3125.9052734375,1272.2095947265625,3125.262939453125,1271.6846923828125,3125.150634765625C1271.2205810546875,3125.05224609375,1270.7425537109375,3125.00048828125,1270.2503662109375,3125.00048828125C1266.5240478515625,3125.00048828125,1263.500732421875,3128.02392578125,1263.500732421875,3131.75048828125L1263.500732421875,3131.787841796875L1267.4990234375,3135.7861328125C1269.1864013671875,3135.359619140625,1271.0518798828125,3135.8095703125,1272.3736572265625,3137.131591796875L1273.109619140625,3137.867431640625C1275.4063720703125,3136.789306640625,1277,3134.455078125,1277,3131.75048828125ZM1255.626220703125,3145.25C1255.626220703125,3144.628662109375,1256.1298828125,3144.125,1256.7510986328125,3144.125C1257.3724365234375,3144.125,1257.8760986328125,3144.628662109375,1257.8760986328125,3145.25C1257.8760986328125,3145.871337890625,1257.3724365234375,3146.375,1256.7510986328125,3146.375C1256.1298828125,3146.375,1255.626220703125,3145.871337890625,1255.626220703125,3145.25Z" id="stroke-shape-render-1-fe7ff8a4-e109-8036-8006-4a7079039d96-0"/></defs><use href="#stroke-shape-render-1-fe7ff8a4-e109-8036-8006-4a7079039d96-0" mask="url(#outer-stroke-render-1-fe7ff8a4-e109-8036-8006-4a7079039d96-0)" style="fill: none; stroke-width: 0.2; stroke: rgb(58, 228, 209); stroke-opacity: 1;"/><use href="#stroke-shape-render-1-fe7ff8a4-e109-8036-8006-4a7079039d96-0" style="fill: none; stroke-width: 0.1; stroke: none; stroke-opacity: 1;"/></g></g></g></svg>