<svg width="36" xmlns="http://www.w3.org/2000/svg" height="26" id="screenshot-fe7ff8a4-e109-8036-8006-4a7079039d99" viewBox="1638 3124 36 26" xmlns:xlink="http://www.w3.org/1999/xlink" fill="none" version="1.1"><g id="shape-fe7ff8a4-e109-8036-8006-4a7079039d99"><defs><linearGradient id="fill-color-gradient-render-1-0" x1="0.5" y1="0" x2="0.5" y2="1" gradientTransform=""><stop offset="0" stop-color="#3ae4d1" stop-opacity="1"/><stop offset="1" stop-color="#28a496" stop-opacity="1"/></linearGradient><pattern patternUnits="userSpaceOnUse" x="1638.9999999999998" y="3124.999999999999" width="34" height="24" patternTransform="matrix(1.000000, 0.000000, 0.000000, 1.000000, 0.000000, 0.000000)" id="fill-0-render-1"><g><rect width="34" height="24" style="fill: url(&quot;#fill-color-gradient-render-1-0&quot;);"/></g></pattern></defs><g class="fills" id="fills-fe7ff8a4-e109-8036-8006-4a7079039d99"><path d="M1642.824951171875,3128C1642.824951171875,3126.34326171875,1644.156982421875,3125,1645.800048828125,3125C1647.4429931640625,3125,1648.7750244140625,3126.34326171875,1648.7750244140625,3128C1648.7750244140625,3129.65673828125,1647.4429931640625,3131,1645.800048828125,3131C1644.156982421875,3131,1642.824951171875,3129.65673828125,1642.824951171875,3128ZM1642.4000244140625,3136.4482421875C1641.8687744140625,3137.048095703125,1641.550048828125,3137.846435546875,1641.550048828125,3138.71435546875C1641.550048828125,3139.58203125,1641.8687744140625,3140.38037109375,1642.4000244140625,3140.98046875L1642.4000244140625,3136.44287109375ZM1650.0712890625,3133.80712890625C1648.493408203125,3135.216064453125,1647.5,3137.278564453125,1647.5,3139.571533203125C1647.5,3141.408935546875,1648.137451171875,3143.096435546875,1649.199951171875,3144.419677734375L1649.199951171875,3145.571533203125C1649.199951171875,3146.51953125,1648.4403076171875,3147.28564453125,1647.5,3147.28564453125L1644.0999755859375,3147.28564453125C1643.15966796875,3147.28564453125,1642.4000244140625,3146.51953125,1642.4000244140625,3145.571533203125L1642.4000244140625,3144.1357421875C1640.391845703125,3143.17138671875,1639,3141.10888671875,1639,3138.71435546875C1639,3135.398193359375,1641.66162109375,3132.71435546875,1644.949951171875,3132.71435546875L1646.6500244140625,3132.71435546875C1647.925048828125,3132.71435546875,1649.1043701171875,3133.115966796875,1650.0712890625,3133.8017578125ZM1662.800048828125,3145.571533203125L1662.800048828125,3144.419677734375C1663.862548828125,3143.096435546875,1664.5,3141.408935546875,1664.5,3139.571533203125C1664.5,3137.278564453125,1663.506591796875,3135.216064453125,1661.9287109375,3133.8017578125C1662.8956298828125,3133.115966796875,1664.074951171875,3132.71435546875,1665.3499755859375,3132.71435546875L1667.050048828125,3132.71435546875C1670.33837890625,3132.71435546875,1673,3135.398193359375,1673,3138.71435546875C1673,3141.10888671875,1671.608154296875,3143.17138671875,1669.5999755859375,3144.1357421875L1669.5999755859375,3145.571533203125C1669.5999755859375,3146.51953125,1668.84033203125,3147.28564453125,1667.9000244140625,3147.28564453125L1664.5,3147.28564453125C1663.5596923828125,3147.28564453125,1662.800048828125,3146.51953125,1662.800048828125,3145.571533203125ZM1663.2249755859375,3128C1663.2249755859375,3126.34326171875,1664.5570068359375,3125,1666.199951171875,3125C1667.843017578125,3125,1669.175048828125,3126.34326171875,1669.175048828125,3128C1669.175048828125,3129.65673828125,1667.843017578125,3131,1666.199951171875,3131C1664.5570068359375,3131,1663.2249755859375,3129.65673828125,1663.2249755859375,3128ZM1669.5999755859375,3136.4482421875L1669.5999755859375,3140.985595703125C1670.1312255859375,3140.38037109375,1670.449951171875,3139.58740234375,1670.449951171875,3138.7197265625C1670.449951171875,3137.851806640625,1670.1312255859375,3137.053466796875,1669.5999755859375,3136.45361328125ZM1656,3125C1657.8778076171875,3125,1659.4000244140625,3126.534912109375,1659.4000244140625,3128.428466796875C1659.4000244140625,3130.322021484375,1657.8778076171875,3131.857177734375,1656,3131.857177734375C1654.1221923828125,3131.857177734375,1652.5999755859375,3130.322021484375,1652.5999755859375,3128.428466796875C1652.5999755859375,3126.534912109375,1654.1221923828125,3125,1656,3125ZM1651.75,3139.571533203125C1651.75,3140.439208984375,1652.0687255859375,3141.232177734375,1652.5999755859375,3141.83740234375L1652.5999755859375,3137.300048828125C1652.0687255859375,3137.9052734375,1651.75,3138.6982421875,1651.75,3139.566162109375ZM1659.4000244140625,3137.305419921875L1659.4000244140625,3141.8427734375C1659.9312744140625,3141.237548828125,1660.25,3140.444580078125,1660.25,3139.576904296875C1660.25,3138.708984375,1659.9312744140625,3137.91064453125,1659.4000244140625,3137.310791015625ZM1662.800048828125,3139.571533203125C1662.800048828125,3141.966064453125,1661.4080810546875,3144.028564453125,1659.4000244140625,3144.992919921875L1659.4000244140625,3147.28564453125C1659.4000244140625,3148.23388671875,1658.6402587890625,3149,1657.699951171875,3149L1654.300048828125,3149C1653.3597412109375,3149,1652.5999755859375,3148.23388671875,1652.5999755859375,3147.28564453125L1652.5999755859375,3144.992919921875C1650.5919189453125,3144.028564453125,1649.199951171875,3141.966064453125,1649.199951171875,3139.571533203125C1649.199951171875,3136.25537109375,1651.861572265625,3133.571533203125,1655.1500244140625,3133.571533203125L1656.8499755859375,3133.571533203125C1660.138427734375,3133.571533203125,1662.800048828125,3136.25537109375,1662.800048828125,3139.571533203125Z" fill="url(#fill-0-render-1)"/></g><g id="strokes-35790be6-10c9-801f-8006-669592147446-fe7ff8a4-e109-8036-8006-4a7079039d99" class="strokes"><g class="outer-stroke-shape"><defs><mask id="outer-stroke-render-1-fe7ff8a4-e109-8036-8006-4a7079039d99-0" x="1638.7585786437626" y="3124.7585786437617" width="34.48284271247462" height="24.482842712474618" maskUnits="userSpaceOnUse"><use href="#stroke-shape-render-1-fe7ff8a4-e109-8036-8006-4a7079039d99-0" style="fill: none; stroke: white; stroke-width: 0.2;"/><use href="#stroke-shape-render-1-fe7ff8a4-e109-8036-8006-4a7079039d99-0" style="fill: black; stroke: none;"/></mask><path d="M1642.824951171875,3128C1642.824951171875,3126.34326171875,1644.156982421875,3125,1645.800048828125,3125C1647.4429931640625,3125,1648.7750244140625,3126.34326171875,1648.7750244140625,3128C1648.7750244140625,3129.65673828125,1647.4429931640625,3131,1645.800048828125,3131C1644.156982421875,3131,1642.824951171875,3129.65673828125,1642.824951171875,3128ZM1642.4000244140625,3136.4482421875C1641.8687744140625,3137.048095703125,1641.550048828125,3137.846435546875,1641.550048828125,3138.71435546875C1641.550048828125,3139.58203125,1641.8687744140625,3140.38037109375,1642.4000244140625,3140.98046875L1642.4000244140625,3136.44287109375ZM1650.0712890625,3133.80712890625C1648.493408203125,3135.216064453125,1647.5,3137.278564453125,1647.5,3139.571533203125C1647.5,3141.408935546875,1648.137451171875,3143.096435546875,1649.199951171875,3144.419677734375L1649.199951171875,3145.571533203125C1649.199951171875,3146.51953125,1648.4403076171875,3147.28564453125,1647.5,3147.28564453125L1644.0999755859375,3147.28564453125C1643.15966796875,3147.28564453125,1642.4000244140625,3146.51953125,1642.4000244140625,3145.571533203125L1642.4000244140625,3144.1357421875C1640.391845703125,3143.17138671875,1639,3141.10888671875,1639,3138.71435546875C1639,3135.398193359375,1641.66162109375,3132.71435546875,1644.949951171875,3132.71435546875L1646.6500244140625,3132.71435546875C1647.925048828125,3132.71435546875,1649.1043701171875,3133.115966796875,1650.0712890625,3133.8017578125ZM1662.800048828125,3145.571533203125L1662.800048828125,3144.419677734375C1663.862548828125,3143.096435546875,1664.5,3141.408935546875,1664.5,3139.571533203125C1664.5,3137.278564453125,1663.506591796875,3135.216064453125,1661.9287109375,3133.8017578125C1662.8956298828125,3133.115966796875,1664.074951171875,3132.71435546875,1665.3499755859375,3132.71435546875L1667.050048828125,3132.71435546875C1670.33837890625,3132.71435546875,1673,3135.398193359375,1673,3138.71435546875C1673,3141.10888671875,1671.608154296875,3143.17138671875,1669.5999755859375,3144.1357421875L1669.5999755859375,3145.571533203125C1669.5999755859375,3146.51953125,1668.84033203125,3147.28564453125,1667.9000244140625,3147.28564453125L1664.5,3147.28564453125C1663.5596923828125,3147.28564453125,1662.800048828125,3146.51953125,1662.800048828125,3145.571533203125ZM1663.2249755859375,3128C1663.2249755859375,3126.34326171875,1664.5570068359375,3125,1666.199951171875,3125C1667.843017578125,3125,1669.175048828125,3126.34326171875,1669.175048828125,3128C1669.175048828125,3129.65673828125,1667.843017578125,3131,1666.199951171875,3131C1664.5570068359375,3131,1663.2249755859375,3129.65673828125,1663.2249755859375,3128ZM1669.5999755859375,3136.4482421875L1669.5999755859375,3140.985595703125C1670.1312255859375,3140.38037109375,1670.449951171875,3139.58740234375,1670.449951171875,3138.7197265625C1670.449951171875,3137.851806640625,1670.1312255859375,3137.053466796875,1669.5999755859375,3136.45361328125ZM1656,3125C1657.8778076171875,3125,1659.4000244140625,3126.534912109375,1659.4000244140625,3128.428466796875C1659.4000244140625,3130.322021484375,1657.8778076171875,3131.857177734375,1656,3131.857177734375C1654.1221923828125,3131.857177734375,1652.5999755859375,3130.322021484375,1652.5999755859375,3128.428466796875C1652.5999755859375,3126.534912109375,1654.1221923828125,3125,1656,3125ZM1651.75,3139.571533203125C1651.75,3140.439208984375,1652.0687255859375,3141.232177734375,1652.5999755859375,3141.83740234375L1652.5999755859375,3137.300048828125C1652.0687255859375,3137.9052734375,1651.75,3138.6982421875,1651.75,3139.566162109375ZM1659.4000244140625,3137.305419921875L1659.4000244140625,3141.8427734375C1659.9312744140625,3141.237548828125,1660.25,3140.444580078125,1660.25,3139.576904296875C1660.25,3138.708984375,1659.9312744140625,3137.91064453125,1659.4000244140625,3137.310791015625ZM1662.800048828125,3139.571533203125C1662.800048828125,3141.966064453125,1661.4080810546875,3144.028564453125,1659.4000244140625,3144.992919921875L1659.4000244140625,3147.28564453125C1659.4000244140625,3148.23388671875,1658.6402587890625,3149,1657.699951171875,3149L1654.300048828125,3149C1653.3597412109375,3149,1652.5999755859375,3148.23388671875,1652.5999755859375,3147.28564453125L1652.5999755859375,3144.992919921875C1650.5919189453125,3144.028564453125,1649.199951171875,3141.966064453125,1649.199951171875,3139.571533203125C1649.199951171875,3136.25537109375,1651.861572265625,3133.571533203125,1655.1500244140625,3133.571533203125L1656.8499755859375,3133.571533203125C1660.138427734375,3133.571533203125,1662.800048828125,3136.25537109375,1662.800048828125,3139.571533203125Z" id="stroke-shape-render-1-fe7ff8a4-e109-8036-8006-4a7079039d99-0"/></defs><use href="#stroke-shape-render-1-fe7ff8a4-e109-8036-8006-4a7079039d99-0" mask="url(#outer-stroke-render-1-fe7ff8a4-e109-8036-8006-4a7079039d99-0)" style="fill: none; stroke-width: 0.2; stroke: rgb(58, 228, 209); stroke-opacity: 1;"/><use href="#stroke-shape-render-1-fe7ff8a4-e109-8036-8006-4a7079039d99-0" style="fill: none; stroke-width: 0.1; stroke: none; stroke-opacity: 1;"/></g></g></g></svg>