<svg width="34.286" xmlns="http://www.w3.org/2000/svg" height="24" id="screenshot-fe7ff8a4-e109-8036-8006-4a7079039d9d" viewBox="2025 3125 34.286 24" xmlns:xlink="http://www.w3.org/1999/xlink" fill="none" version="1.1"><g id="shape-fe7ff8a4-e109-8036-8006-4a7079039d9d"><defs><linearGradient id="fill-color-gradient-render-1-0" x1="0.5" y1="0" x2="0.5" y2="1" gradientTransform=""><stop offset="0" stop-color="#3ae4d1" stop-opacity="1"/><stop offset="1" stop-color="#28a496" stop-opacity="1"/></linearGradient><pattern patternUnits="userSpaceOnUse" x="2024.9999999999998" y="3124.999999999999" width="34.28571428571399" height="24" patternTransform="matrix(1.000000, 0.000000, 0.000000, 1.000000, 0.000000, 0.000000)" id="fill-0-render-1"><g><rect width="34.28571428571399" height="24" style="fill: url(&quot;#fill-color-gradient-render-1-0&quot;);"/></g></pattern></defs><g class="fills" id="fills-fe7ff8a4-e109-8036-8006-4a7079039d9d"><path d="M2028.4285888671875,3128.428466796875C2028.4285888671875,3126.53759765625,2029.966064453125,3125,2031.857177734375,3125L2052.428466796875,3125C2054.319580078125,3125,2055.857177734375,3126.53759765625,2055.857177734375,3128.428466796875L2055.857177734375,3142.142822265625L2052.428466796875,3142.142822265625L2052.428466796875,3128.428466796875L2031.857177734375,3128.428466796875L2031.857177734375,3142.142822265625L2028.4285888671875,3142.142822265625L2028.4285888671875,3128.428466796875ZM2025,3144.8857421875C2025,3144.31787109375,2025.460693359375,3143.857177734375,2026.028564453125,3143.857177734375L2058.257080078125,3143.857177734375C2058.824951171875,3143.857177734375,2059.28564453125,3144.31787109375,2059.28564453125,3144.8857421875C2059.28564453125,3147.1572265625,2057.44287109375,3149,2055.17138671875,3149L2029.1142578125,3149C2026.8428955078125,3149,2025,3147.1572265625,2025,3144.8857421875ZM2040.0535888671875,3134.482177734375L2038.392822265625,3136.142822265625L2040.0535888671875,3137.803466796875C2040.55712890625,3138.30712890625,2040.55712890625,3139.121337890625,2040.0535888671875,3139.61962890625C2039.550048828125,3140.117919921875,2038.7357177734375,3140.123291015625,2038.237548828125,3139.61962890625L2035.666015625,3137.048095703125C2035.1624755859375,3136.544677734375,2035.1624755859375,3135.73046875,2035.666015625,3135.232177734375L2038.237548828125,3132.66064453125C2038.7410888671875,3132.1572265625,2039.5552978515625,3132.1572265625,2040.0535888671875,3132.66064453125C2040.5517578125,3133.164306640625,2040.55712890625,3133.978515625,2040.0535888671875,3134.476806640625ZM2046.0535888671875,3132.66064453125L2048.625,3135.232177734375C2049.128662109375,3135.735595703125,2049.128662109375,3136.550048828125,2048.625,3137.048095703125L2046.0535888671875,3139.61962890625C2045.550048828125,3140.123291015625,2044.7357177734375,3140.123291015625,2044.237548828125,3139.61962890625C2043.7392578125,3139.115966796875,2043.73388671875,3138.3017578125,2044.237548828125,3137.803466796875L2045.898193359375,3136.142822265625L2044.237548828125,3134.482177734375C2043.73388671875,3133.978515625,2043.73388671875,3133.164306640625,2044.237548828125,3132.666015625C2044.7410888671875,3132.16796875,2045.5552978515625,3132.16259765625,2046.0535888671875,3132.666015625Z" fill="url(#fill-0-render-1)"/></g><g id="strokes-a10a651b-b321-80c1-8006-6695a7297694-fe7ff8a4-e109-8036-8006-4a7079039d9d" class="strokes"><g class="inner-stroke-shape"><defs><clipPath id="inner-stroke-render-1-fe7ff8a4-e109-8036-8006-4a7079039d9d-0"><use href="#stroke-shape-render-1-fe7ff8a4-e109-8036-8006-4a7079039d9d-0"/></clipPath><path d="M2028.4285888671875,3128.428466796875C2028.4285888671875,3126.53759765625,2029.966064453125,3125,2031.857177734375,3125L2052.428466796875,3125C2054.319580078125,3125,2055.857177734375,3126.53759765625,2055.857177734375,3128.428466796875L2055.857177734375,3142.142822265625L2052.428466796875,3142.142822265625L2052.428466796875,3128.428466796875L2031.857177734375,3128.428466796875L2031.857177734375,3142.142822265625L2028.4285888671875,3142.142822265625L2028.4285888671875,3128.428466796875ZM2025,3144.8857421875C2025,3144.31787109375,2025.460693359375,3143.857177734375,2026.028564453125,3143.857177734375L2058.257080078125,3143.857177734375C2058.824951171875,3143.857177734375,2059.28564453125,3144.31787109375,2059.28564453125,3144.8857421875C2059.28564453125,3147.1572265625,2057.44287109375,3149,2055.17138671875,3149L2029.1142578125,3149C2026.8428955078125,3149,2025,3147.1572265625,2025,3144.8857421875ZM2040.0535888671875,3134.482177734375L2038.392822265625,3136.142822265625L2040.0535888671875,3137.803466796875C2040.55712890625,3138.30712890625,2040.55712890625,3139.121337890625,2040.0535888671875,3139.61962890625C2039.550048828125,3140.117919921875,2038.7357177734375,3140.123291015625,2038.237548828125,3139.61962890625L2035.666015625,3137.048095703125C2035.1624755859375,3136.544677734375,2035.1624755859375,3135.73046875,2035.666015625,3135.232177734375L2038.237548828125,3132.66064453125C2038.7410888671875,3132.1572265625,2039.5552978515625,3132.1572265625,2040.0535888671875,3132.66064453125C2040.5517578125,3133.164306640625,2040.55712890625,3133.978515625,2040.0535888671875,3134.476806640625ZM2046.0535888671875,3132.66064453125L2048.625,3135.232177734375C2049.128662109375,3135.735595703125,2049.128662109375,3136.550048828125,2048.625,3137.048095703125L2046.0535888671875,3139.61962890625C2045.550048828125,3140.123291015625,2044.7357177734375,3140.123291015625,2044.237548828125,3139.61962890625C2043.7392578125,3139.115966796875,2043.73388671875,3138.3017578125,2044.237548828125,3137.803466796875L2045.898193359375,3136.142822265625L2044.237548828125,3134.482177734375C2043.73388671875,3133.978515625,2043.73388671875,3133.164306640625,2044.237548828125,3132.666015625C2044.7410888671875,3132.16796875,2045.5552978515625,3132.16259765625,2046.0535888671875,3132.666015625Z" id="stroke-shape-render-1-fe7ff8a4-e109-8036-8006-4a7079039d9d-0" style="fill: none; stroke-width: 0.2; stroke: rgb(58, 228, 209); stroke-opacity: 1;"/></defs><use href="#stroke-shape-render-1-fe7ff8a4-e109-8036-8006-4a7079039d9d-0" clip-path="url('#inner-stroke-render-1-fe7ff8a4-e109-8036-8006-4a7079039d9d-0')"/></g></g></g></svg>